<?xml version="1.0" encoding="UTF-8"?>
<svg version="1.1" xmlns="http://www.w3.org/2000/svg" width="300" height="303">
<path d="M0 0 C99 0 198 0 300 0 C300 99.99 300 199.98 300 303 C201 303 102 303 0 303 C0 203.01 0 103.02 0 0 Z " fill="#FBFCFB" transform="translate(0,0)"/>
<path d="M0 0 C0 0.66 0 1.32 0 2 C1.65 2.33 3.3 2.66 5 3 C5 3.66 5 4.32 5 5 C5.55171875 5.24492187 6.1034375 5.48984375 6.671875 5.7421875 C17.41321806 11.54539633 26.311803 21.39860246 33.375 31.1875 C33.80433838 31.78199951 34.23367676 32.37649902 34.67602539 32.98901367 C36.94837225 36.22621162 38.64400051 39.29521569 40 43 C41.29614761 45.5490903 42.63124657 48.07421684 43.9765625 50.59765625 C45 53 45 53 45 57 C36.09 57 27.18 57 18 57 C16.02 53.04 16.02 53.04 14 49 C7.87077382 39.84187883 0.48093305 33.0414012 -8.64501953 27.01953125 C-12.90344545 24.19310911 -12.90344545 24.19310911 -14 22 C-32.41530095 12.79234953 -55.94898055 9.71826805 -76 15 C-79.1668838 16.37492804 -79.1668838 16.37492804 -82 18 C-83.41066751 18.45647331 -84.82815654 18.89212889 -86.25 19.3125 C-94.48896798 21.98497197 -101.16375681 26.76978616 -107.40625 32.6796875 C-109 34 -109 34 -111 34 C-111.24105469 34.56203125 -111.48210937 35.1240625 -111.73046875 35.703125 C-113.25845459 38.467604 -115.14082251 40.45787654 -117.3125 42.75 C-124.16231772 50.29027935 -127.60874151 57.04602135 -130.88671875 66.73046875 C-132 70 -132 70 -133.01953125 72.30078125 C-135.86921745 80.1459333 -136.33043625 88.03449995 -136.25 96.3125 C-136.24323242 97.32070801 -136.23646484 98.32891602 -136.22949219 99.36767578 C-136.09021453 109.43291574 -135.5415968 118.79035242 -131 127.95703125 C-130.02775778 129.94329173 -129.28455264 131.91179094 -128.5625 134 C-125.94325203 141.09320667 -122.54942942 146.82894076 -117 152 C-115.57539236 153.59711872 -114.1596533 155.20216689 -112.75 156.8125 C-105.1976413 165.17093968 -98.19462174 170.7977262 -88.0390625 175.5546875 C-85 177 -85 177 -82 179 C-79.95294775 179.59739945 -77.88766892 180.13409983 -75.8125 180.625 C-74.72582031 180.88539063 -73.63914062 181.14578125 -72.51953125 181.4140625 C-71.68808594 181.60742188 -70.85664063 181.80078125 -70 182 C-70 182.66 -70 183.32 -70 184 C-51.99631585 186.40049122 -33.3464416 185.7821472 -16 180 C-16 179.34 -16 178.68 -16 178 C-15.26136719 177.72027344 -14.52273437 177.44054687 -13.76171875 177.15234375 C-3.34101656 173.03437885 13.72589126 165.54821749 19 155 C18.29875 155.45890625 17.5975 155.9178125 16.875 156.390625 C-1.7786088 168.45464374 -22.21331772 176.43513855 -44.625 176.25 C-45.7598584 176.24613281 -46.8947168 176.24226562 -48.06396484 176.23828125 C-56.83880354 176.14850032 -65.34736757 175.46388947 -74 174 C-74 173.34 -74 172.68 -74 172 C-74.66 172 -75.32 172 -76 172 C-76 171.34 -76 170.68 -76 170 C-76.80630859 169.85304687 -76.80630859 169.85304687 -77.62890625 169.703125 C-84.95802115 167.52974661 -91.94171535 162.63637433 -97 157 C-98.08034767 156.16279963 -99.16401738 155.32987788 -100.25 154.5 C-103.73091593 151.5711236 -106.29287492 148.08847917 -108.875 144.375 C-109.26848633 143.81232422 -109.66197266 143.24964844 -110.06738281 142.66992188 C-111.97198247 139.85064618 -113.48659188 137.3951182 -114 134 C-114.66 134 -115.32 134 -116 134 C-117.38902887 131.22194226 -116.90349314 129.20347821 -116.625 126.125 C-116.53476563 125.07570312 -116.44453125 124.02640625 -116.3515625 122.9453125 C-116 120 -116 120 -115.52075195 118.24707031 C-114.81744265 115.21225603 -114.58804171 112.20474881 -114.31640625 109.1015625 C-114.19206425 107.72005146 -114.06771504 106.33854106 -113.94335938 104.95703125 C-113.75375591 102.80754457 -113.5653774 100.65795519 -113.37768555 98.50830078 C-113.19370574 96.41409883 -113.00514935 94.32033981 -112.81640625 92.2265625 C-112.70756104 90.98471191 -112.59871582 89.74286133 -112.48657227 88.46337891 C-111.81357799 82.28993119 -110.87822979 76.14760852 -110 70 C-93.83 70 -77.66 70 -61 70 C-56 80 -56 80 -56 82 C-55.34 82 -54.68 82 -54 82 C-53.02604945 83.6550995 -52.12411411 85.3525706 -51.25 87.0625 C-48.0959097 92.6367099 -44.43407858 97.20239503 -40.0625 101.875 C-39.48983398 102.4925415 -38.91716797 103.11008301 -38.32714844 103.74633789 C-32.98207037 109.33512858 -27.34737804 114.34678015 -20 117 C-19.08347656 117.70769531 -19.08347656 117.70769531 -18.1484375 118.4296875 C-15.92960821 120.05145 -13.93784902 120.96495306 -11.375 121.9375 C-6.1409838 123.93941568 -6.1409838 123.93941568 -3.58203125 125.0390625 C9.46656165 130.61611199 23.01153175 131.81453659 37 133 C38.59751449 136.61150324 39.39420303 139.83692624 39.8515625 143.75390625 C39.98046875 144.85669922 40.109375 145.95949219 40.2421875 147.09570312 C40.36851562 148.23974609 40.49484375 149.38378906 40.625 150.5625 C40.82609375 152.23795898 40.82609375 152.23795898 41.03125 153.94726562 C43.28831487 173.81173961 43.28831487 173.81173961 40.12109375 179.19140625 C39.23550781 179.97386719 38.34992188 180.75632813 37.4375 181.5625 C36.95659912 181.99739746 36.47569824 182.43229492 35.98022461 182.88037109 C34.3586939 184.30862535 32.6943274 185.65900754 31 187 C30.36352539 187.50547363 29.72705078 188.01094727 29.07128906 188.53173828 C17.00484724 197.97465652 17.00484724 197.97465652 12 199 C12 199.66 12 200.32 12 201 C10.32558818 201.71760507 8.65114682 202.4351413 6.9765625 203.15234375 C5.25423743 203.89096932 3.53325118 204.63271518 1.8125 205.375 C1.22984375 205.61992187 0.6471875 205.86484375 0.046875 206.1171875 C-1.49635512 206.78277912 -3.02545541 207.48127202 -4.546875 208.1953125 C-11.88897453 211.50917904 -18.93183669 213.14532258 -26.82421875 214.421875 C-29.85147086 214.66179354 -29.85147086 214.66179354 -31 216 C-47.83482152 216.99987211 -66.20438078 217.5361183 -82 211 C-84.98119279 210.23354192 -87.98012706 209.59418796 -91 209 C-91 208.34 -91 207.68 -91 207 C-92.60875 206.8453125 -92.60875 206.8453125 -94.25 206.6875 C-98.09508043 205.98256859 -99.06084084 205.31570116 -102 203 C-103.21945313 202.56816406 -104.43890625 202.13632813 -105.6953125 201.69140625 C-109.9447774 200.13916916 -113.32402583 198.00172892 -116.9375 195.3125 C-117.53578613 194.87478271 -118.13407227 194.43706543 -118.75048828 193.98608398 C-129.46973888 186.04392345 -129.46973888 186.04392345 -133 182 C-133 181.01 -133 180.02 -133 179 C-133.54527344 178.81050781 -134.09054688 178.62101563 -134.65234375 178.42578125 C-138.10272274 176.33029318 -140.14132695 173.37325401 -142.5625 170.1875 C-143.04396484 169.57068359 -143.52542969 168.95386719 -144.02148438 168.31835938 C-151 159.2856452 -151 159.2856452 -151 156 C-151.66 156 -152.32 156 -153 156 C-164.67237085 130.16340384 -172.74350953 100.38033833 -165 72 C-164.82758789 71.36529785 -164.65517578 70.7305957 -164.47753906 70.07666016 C-159.73512208 53.17449914 -152.15737738 36.83380289 -140 24 C-139.45714355 23.41766602 -138.91428711 22.83533203 -138.35498047 22.23535156 C-127.9447061 11.13747277 -117.56439381 1.66950878 -103.11328125 -3.8046875 C-100.20971315 -4.91948278 -97.40428381 -6.17850742 -94.58032227 -7.47924805 C-88.77054099 -10.12414381 -84.37583076 -11.76509969 -78 -11 C-78 -11.66 -78 -12.32 -78 -13 C-50.30371765 -18.15044577 -24.88377918 -11.71881384 0 0 Z " fill="#04773E" transform="translate(224,20)"/>
<path d="M0 0 C5.75430876 1.83012066 11.72115643 4.72115643 16 9 C16.144375 9.639375 16.28875 10.27875 16.4375 10.9375 C16.84495658 13.10336228 16.84495658 13.10336228 18.5625 14.5625 C19.036875 15.036875 19.51125 15.51125 20 16 C20 16.99 20 17.98 20 19 C20.66 19 21.32 19 22 19 C24.68741925 24.3748385 23 30.99074787 23 37 C39.83 37 56.66 37 74 37 C74.99 46.405 74.99 46.405 76 56 C76.75297945 60.24146673 76.75297945 60.24146673 77.55810547 64.47314453 C78.3951015 69.25928206 78.70307309 74.09617578 79.0625 78.9375 C79.17948242 80.42926758 79.17948242 80.42926758 79.29882812 81.95117188 C79.45528312 83.94629635 79.6097711 85.94157614 79.76220703 87.93701172 C80.15215418 92.95988326 80.57622774 97.97988578 81 103 C80.67 102.01 80.34 101.02 80 100 C78.77667969 99.98582031 77.55335938 99.97164063 76.29296875 99.95703125 C60.12709968 99.57528769 45.23729407 96.97398834 31 89 C29.67443047 88.41944041 28.34154759 87.85511782 27 87.3125 C24 86 24 86 22 84 C20.948125 83.62875 20.948125 83.62875 19.875 83.25 C6.61334922 77.48406488 -4.35148654 63.53215369 -11 51 C-11 50.34 -11 49.68 -11 49 C-11.66 49 -12.32 49 -13 49 C-15.475 43.555 -15.475 43.555 -18 38 C-24.6 37.67 -31.2 37.34 -38 37 C-38.592036 25.86972314 -37.01677699 19.8020112 -30.75 10.75 C-27.1923774 7.1923774 -23.25637235 4.64628393 -19 2 C-13.66869983 -1.55420012 -6.21812241 -1.01426408 0 0 Z " fill="#F9B206" transform="translate(181,53)"/>
<path d="M0 0 C2.99591579 1.45256523 4.88228767 3.5169804 7.0625 6 C7.0625 6.66 7.0625 7.32 7.0625 8 C7.63097656 8.25007812 8.19945313 8.50015625 8.78515625 8.7578125 C11.39076512 10.1790537 13.31544757 11.86839205 15.5 13.875 C18.60999301 16.69760092 21.73929163 19.42719352 25.0625 22 C24.48991518 28.15528682 22.11688863 30.98464121 17.80078125 35.21875 C14.721237 38.34661805 11.85267148 41.60400088 9 44.9375 C8.2255957 45.82985352 8.2255957 45.82985352 7.43554688 46.74023438 C5.02946755 49.5447727 2.79726197 52.318419 0.81640625 55.44140625 C0.23761719 56.28574219 -0.34117188 57.13007813 -0.9375 58 C-1.5975 58 -2.2575 58 -2.9375 58 C-3.205625 58.763125 -3.47375 59.52625 -3.75 60.3125 C-4.9375 63 -4.9375 63 -6.36328125 64.3984375 C-8.16376005 66.23019012 -9.13900441 68.03245321 -10.3125 70.3125 C-12.90554808 75.10146267 -15.60777541 79.28696722 -20.0625 82.5625 C-22.0921066 83.93436005 -22.0921066 83.93436005 -23.3125 86.3125 C-25.44237359 89.83498325 -27.89780074 92.21899855 -30.9375 95 C-31.5975 95 -32.2575 95 -32.9375 95 C-32.9375 95.66 -32.9375 96.32 -32.9375 97 C-42.18597618 97.85810604 -47.43769678 96.34214753 -54.9375 91 C-55.783125 90.53078125 -56.62875 90.0615625 -57.5 89.578125 C-60.17865183 87.84386965 -61.63147223 86.13335143 -63.5 83.5625 C-65.26712543 81.15055744 -66.94532901 78.99236991 -69.08984375 76.90234375 C-72.20770978 73.69219416 -72.21623923 70.41273729 -72.16015625 66.0703125 C-71.81918004 62.89983196 -70.67479069 60.63810809 -68.9375 58 C-67.4525 57.505 -67.4525 57.505 -65.9375 57 C-65.9375 56.34 -65.9375 55.68 -65.9375 55 C-64.36328125 53.4140625 -64.36328125 53.4140625 -62.25 51.625 C-61.52039062 51.00367188 -60.79078125 50.38234375 -60.0390625 49.7421875 C-57.69485955 47.79885197 -55.31516514 45.90213211 -52.9375 44 C-50.55862149 41.87600133 -49.9821753 41.13402591 -48.9375 38 C-47.6175 38 -46.2975 38 -44.9375 38 C-44.9375 37.34 -44.9375 36.68 -44.9375 36 C-44.2775 36 -43.6175 36 -42.9375 36 C-42.9375 35.34 -42.9375 34.68 -42.9375 34 C-41.43359375 32.95703125 -41.43359375 32.95703125 -39.375 31.8125 C-34.86707287 29.11252245 -31.50793348 25.81788927 -27.9375 22 C-16.50449824 10.27384435 -16.50449824 10.27384435 -10.9375 8 C-9.9475 8 -8.9575 8 -7.9375 8 C-7.56625 6.8553125 -7.56625 6.8553125 -7.1875 5.6875 C-5.61323473 2.30282967 -3.96254279 0 0 0 Z " fill="#F9B305" transform="translate(78.9375,202)"/>
<path d="M0 0 C4.6382992 1.50062621 7.65849848 3.49937936 11 7 C11.15593145 10.74235489 10.34971091 12.48792331 8.25 15.5625 C6.78411497 17.15054212 5.28105061 18.70529059 3.73828125 20.21875 C0.658737 23.34661805 -2.20982852 26.60400088 -5.0625 29.9375 C-5.57876953 30.53240234 -6.09503906 31.12730469 -6.62695312 31.74023438 C-9.03303245 34.5447727 -11.26523803 37.318419 -13.24609375 40.44140625 C-14.11427734 41.70791016 -14.11427734 41.70791016 -15 43 C-15.66 43 -16.32 43 -17 43 C-17.268125 43.763125 -17.53625 44.52625 -17.8125 45.3125 C-19 48 -19 48 -20.42578125 49.3984375 C-22.22626005 51.23019012 -23.20150441 53.03245321 -24.375 55.3125 C-26.96804808 60.10146267 -29.67027541 64.28696722 -34.125 67.5625 C-36.1546066 68.93436005 -36.1546066 68.93436005 -37.375 71.3125 C-39.50487359 74.83498325 -41.96030074 77.21899855 -45 80 C-45.66 80 -46.32 80 -47 80 C-47 80.66 -47 81.32 -47 82 C-60.06672454 82.77241721 -60.06672454 82.77241721 -66 78 C-67.1796875 75.35546875 -67.1796875 75.35546875 -68 73 C-66.5484451 71.32742645 -65.08855591 69.66208242 -63.625 68 C-62.81289063 67.071875 -62.00078125 66.14375 -61.1640625 65.1875 C-60.44992188 64.465625 -59.73578125 63.74375 -59 63 C-58.34 63 -57.68 63 -57 63 C-57 62.34 -57 61.68 -57 61 C-55.57787867 60.07955376 -54.15439313 59.16114715 -52.72412109 58.25341797 C-49.60067142 55.98270279 -47.2685528 53.01661167 -44.8125 50.0625 C-44.29236328 49.45470703 -43.77222656 48.84691406 -43.23632812 48.22070312 C-40.47916585 44.95647652 -38.12856564 41.71857853 -36 38 C-34.43263425 35.85591807 -32.79241635 33.97625392 -31 32 C-30.34 32 -29.68 32 -29 32 C-28.731875 31.195625 -28.46375 30.39125 -28.1875 29.5625 C-27.5996875 28.2940625 -27.5996875 28.2940625 -27 27 C-26.01 26.67 -25.02 26.34 -24 26 C-22.675506 24.51071041 -22.675506 24.51071041 -21.4375 22.625 C-18.778262 18.95525156 -15.94005213 15.52074348 -12.9375 12.125 C-12.12152344 11.19945312 -11.30554688 10.27390625 -10.46484375 9.3203125 C-7.99047518 6.99103369 -6.1514429 6.12280324 -3 5 C-1.71563266 3.0162233 -1.71563266 3.0162233 -1 1 C-0.67 0.67 -0.34 0.34 0 0 Z " fill="#DE9108" transform="translate(93,217)"/>
<path d="M0 0 C4.76447307 2.67335322 6.84566126 6.42569751 9.26953125 11.2734375 C9.26953125 15.8934375 9.26953125 20.5134375 9.26953125 25.2734375 C-4.92046875 25.2734375 -19.11046875 25.2734375 -33.73046875 25.2734375 C-33.73046875 11.2734375 -33.73046875 11.2734375 -31.73046875 7.2734375 C-29.85546875 5.5703125 -29.85546875 5.5703125 -27.73046875 4.0234375 C-27.02921875 3.50265625 -26.32796875 2.981875 -25.60546875 2.4453125 C-23.73046875 1.2734375 -23.73046875 1.2734375 -21.73046875 1.2734375 C-21.73046875 0.6134375 -21.73046875 -0.0465625 -21.73046875 -0.7265625 C-13.80053798 -3.89853481 -7.66845309 -3.32181839 0 0 Z " fill="#FDFDFA" transform="translate(185.73046875,64.7265625)"/>
<path d="M0 0 C3.63 0 7.26 0 11 0 C11 2.31 11 4.62 11 7 C11.66 7 12.32 7 13 7 C13.07347656 7.99966797 13.07347656 7.99966797 13.1484375 9.01953125 C13.22320312 9.94121094 13.29796875 10.86289063 13.375 11.8125 C13.44460938 12.70582031 13.51421875 13.59914063 13.5859375 14.51953125 C13.93357725 17.4416729 14.41574602 20.25448764 14.97265625 23.140625 C16.07468543 29.05401339 16.61748916 34.94339743 17.0625 40.9375 C17.14048828 41.93201172 17.21847656 42.92652344 17.29882812 43.95117188 C17.45528312 45.94629635 17.6097711 47.94157614 17.76220703 49.93701172 C18.15215418 54.95988326 18.57622774 59.97988578 19 65 C18.505 63.515 18.505 63.515 18 62 C17.44127197 61.98018066 16.88254395 61.96036133 16.30688477 61.93994141 C13.72502582 61.8434781 11.14384608 61.73430188 8.5625 61.625 C7.68400391 61.5940625 6.80550781 61.563125 5.90039062 61.53125 C0.04416673 61.27193381 -5.31155423 60.42355815 -11 59 C-11 58.67 -11 58.34 -11 58 C-6.48382401 57.92345464 -2.40914783 57.89771304 2 59 C1.84152588 58.28730957 1.68305176 57.57461914 1.51977539 56.84033203 C1.00742887 54.04059534 0.79524926 51.39687241 0.68359375 48.5546875 C0.64161865 47.48968018 0.59964355 46.42467285 0.55639648 45.32739258 C0.51716064 44.18810303 0.4779248 43.04881348 0.4375 41.875 C0.3950415 40.69897217 0.35258301 39.52294434 0.30883789 38.3112793 C-0.11196097 25.5408382 -0.09060675 12.77555218 0 0 Z " fill="#D78A09" transform="translate(243,91)"/>
<path d="M0 0 C0.66 0 1.32 0 2 0 C2.67220351 1.93558599 3.33758077 3.87354372 4 5.8125 C4.556875 7.43091797 4.556875 7.43091797 5.125 9.08203125 C6 12 6 12 6 15 C11.28 15 16.56 15 22 15 C22 15.66 22 16.32 22 17 C20.1015625 18.5078125 20.1015625 18.5078125 17.625 20.125 C16.81289062 20.66382813 16.00078125 21.20265625 15.1640625 21.7578125 C13 23 13 23 11 23 C11.33 27.95 11.66 32.9 12 38 C6 36 6 36 3 34 C-2.03614869 34.22382883 -4.94915016 36.14599216 -9 39 C-9.66 39 -10.32 39 -11 39 C-10.86980469 38.04738281 -10.73960937 37.09476563 -10.60546875 36.11328125 C-9.48787246 28.57797606 -9.48787246 28.57797606 -12.125 21.8125 C-14.00807203 20.62534589 -15.90367854 19.45779288 -17.8125 18.3125 C-18.534375 17.879375 -19.25625 17.44625 -20 17 C-20 16.34 -20 15.68 -20 15 C-15.05 15 -10.1 15 -5 15 C-4.67 13.35 -4.34 11.7 -4 10 C-3.35103174 8.2146857 -2.66312895 6.44305392 -1.9375 4.6875 C-1.57527344 3.80449219 -1.21304688 2.92148438 -0.83984375 2.01171875 C-0.56269531 1.34785156 -0.28554687 0.68398437 0 0 Z " fill="#F8AE06" transform="translate(173,126)"/>
<path d="M0 0 C0.74958984 0.00902344 1.49917969 0.01804688 2.27148438 0.02734375 C4.11862654 0.05087422 5.96560412 0.08674439 7.8125 0.125 C7.8125 0.455 7.8125 0.785 7.8125 1.125 C6.50925781 1.18107422 6.50925781 1.18107422 5.1796875 1.23828125 C-3.49665475 1.52888066 -3.49665475 1.52888066 -11.1875 5.125 C-13.06881569 7.67288853 -13.06881569 7.67288853 -14.1875 10.125 C-13.39859375 9.79886719 -12.6096875 9.47273438 -11.796875 9.13671875 C-7.24893777 7.86191816 -3.13187051 7.86962097 1.5625 7.9375 C2.42488281 7.93814453 3.28726563 7.93878906 4.17578125 7.93945312 C10.53091518 7.98420759 10.53091518 7.98420759 12.8125 9.125 C12.8125 10.115 12.8125 11.105 12.8125 12.125 C11.6575 11.795 10.5025 11.465 9.3125 11.125 C3.01984339 9.55739473 -2.81899264 9.85129853 -9.1875 11.125 C-9.1875 11.785 -9.1875 12.445 -9.1875 13.125 C-11.68146853 15.00339735 -14.28639281 16.66759827 -16.90234375 18.37109375 C-19.45377125 19.99042634 -19.45377125 19.99042634 -20.1875 23.125 C-20.41310676 25.51754576 -20.59598595 27.91428123 -20.75 30.3125 C-20.83378906 31.58480469 -20.91757813 32.85710937 -21.00390625 34.16796875 C-21.06449219 35.14378906 -21.12507812 36.11960938 -21.1875 37.125 C-24.1575 37.125 -27.1275 37.125 -30.1875 37.125 C-30.95755271 26.20736382 -29.09810074 19.77364552 -22.9375 10.875 C-19.3798774 7.3173774 -15.44387235 4.77128393 -11.1875 2.125 C-7.39586973 -0.40275351 -4.37875969 -0.09943035 0 0 Z " fill="#F1B623" transform="translate(173.1875,52.875)"/>
<path d="M0 0 C2 1 4 2 6 3 C6.6328125 5.50390625 6.6328125 5.50390625 7.125 8.5625 C7.29257813 9.57441406 7.46015625 10.58632812 7.6328125 11.62890625 C7.75398437 12.41136719 7.87515625 13.19382813 8 14 C12.43031277 15.47677092 18.56670214 15.95065106 23 14 C23.33 13.01 23.66 12.02 24 11 C22.68 10.67 21.36 10.34 20 10 C20.33 9.34 20.66 8.68 21 8 C22.3303125 8.928125 22.3303125 8.928125 23.6875 9.875 C26.4849668 11.66960135 28.9423769 12.79304351 32 14 C32.91652344 14.70962891 32.91652344 14.70962891 33.8515625 15.43359375 C36.10125837 17.07382655 38.15498049 18.0082728 40.75 19 C42.05324219 19.50273437 42.05324219 19.50273437 43.3828125 20.015625 C44.24648437 20.34046875 45.11015625 20.6653125 46 21 C47.20269531 21.45632812 47.20269531 21.45632812 48.4296875 21.921875 C50.28392434 22.62133801 52.14159044 23.31170016 54 24 C54 24.33 54 24.66 54 25 C52.0412957 24.85923685 50.08303907 24.7122324 48.125 24.5625 C47.03445312 24.48128906 45.94390625 24.40007812 44.8203125 24.31640625 C42 24 42 24 40 23 C40 22.34 40 21.68 40 21 C39.278125 20.896875 38.55625 20.79375 37.8125 20.6875 C34.72206579 19.93206053 32.58256159 18.84468685 30 17 C30 16.34 30 15.68 30 15 C29.34 15 28.68 15 28 15 C28 15.66 28 16.32 28 17 C27.34 17 26.68 17 26 17 C26.495 18.485 26.495 18.485 27 20 C22.98745115 23.51098025 18.79016959 25.76537994 14 28 C13.83318891 30.91652174 13.83318891 30.91652174 14 34 C14.66 34.66 15.32 35.32 16 36 C16.1953125 38.1640625 16.1953125 38.1640625 16.125 40.625 C16.10695312 41.44226563 16.08890625 42.25953125 16.0703125 43.1015625 C16.04710937 43.72804687 16.02390625 44.35453125 16 45 C11.93929586 44.71669506 10.41881507 44.46290086 7.625 41.375 C5.34356653 38.80910984 5.34356653 38.80910984 3.015625 38.89453125 C0.99566995 39.17098495 -1.00460638 39.58161102 -3 40 C-3.99 40 -4.98 40 -6 40 C-0.90909091 36 -0.90909091 36 2.9375 36 C6.68926312 37.22506551 9.64678074 38.92100406 13 41 C12.84402344 40.33613281 12.68804687 39.67226562 12.52734375 38.98828125 C12.33269531 38.10527344 12.13804687 37.22226563 11.9375 36.3125 C11.64166016 35.00732422 11.64166016 35.00732422 11.33984375 33.67578125 C10.96356631 30.71313703 11.0070881 28.82098335 12 26 C13.99609375 24.19921875 13.99609375 24.19921875 16.4375 22.6875 C17.24058594 22.17574219 18.04367188 21.66398437 18.87109375 21.13671875 C21 20 21 20 23 20 C23 19.34 23 18.68 23 18 C17.72 18 12.44 18 7 18 C3 7.5 3 7.5 3 3 C2.34 3 1.68 3 1 3 C0.566875 4.918125 0.566875 4.918125 0.125 6.875 C-0.54102483 9.82453855 -0.80202597 10.80202597 -3 13 C-3.38281159 7.76824163 -2.21854707 4.62197306 0 0 Z " fill="#17712C" transform="translate(172,123)"/>
<path d="M0 0 C2.2899594 2.12639087 4.08246498 4.1271185 5.7890625 6.7578125 C8.15597815 10.22873122 10.75637159 13.19728849 13.625 16.25 C14.35976562 17.04277344 14.35976562 17.04277344 15.109375 17.8515625 C17.04290296 19.93301063 18.99104561 21.99104561 21 24 C21 24.99 21 25.98 21 27 C22.32 27.33 23.64 27.66 25 28 C24.67 29.32 24.34 30.64 24 32 C19.37596043 33.54134652 14.18309353 33.72769784 9.5625 32.1875 C8 31 8 31 7 28 C6.87218214 25.32605036 6.95608129 22.67904143 7 20 C6.01 19.67 5.02 19.34 4 19 C4.11859375 18.39671875 4.2371875 17.7934375 4.359375 17.171875 C4.75201827 14.7374867 5.04290987 12.46731755 5 10 C3.18739868 7.77068176 3.18739868 7.77068176 1 6 C0.25 2.75 0.25 2.75 0 0 Z " fill="#03723A" transform="translate(171,106)"/>
<path d="M0 0 C5.23448905 2.28170035 6.53799611 4.80243624 9 10 C9 14.62 9 19.24 9 24 C-5.19 24 -19.38 24 -34 24 C-34 10 -34 10 -32 6 C-31.67 6 -31.34 6 -31 6 C-29.82433728 11.5843979 -30 15.98669057 -30 22 C-17.79 22 -5.58 22 7 22 C7 18.04 7 14.08 7 10 C6.01 9.67 5.02 9.34 4 9 C3.26919734 7.02253397 2.60578253 5.01927511 2 3 C1.34 2.01 0.68 1.02 0 0 Z " fill="#F4E9B5" transform="translate(186,66)"/>
<path d="M0 0 C1.875 1.5625 1.875 1.5625 3 4 C2.56363636 10.43636364 2.56363636 10.43636364 1 12 C-5.46153846 12.35897436 -5.46153846 12.35897436 -9 10 C-9.40843923 7.28796348 -9.13336867 4.7562858 -9 2 C-5.89608238 0.16064141 -3.60570855 -0.55472439 0 0 Z " fill="#D7EEE2" transform="translate(146,99)"/>
<path d="M0 0 C0.33 0 0.66 0 1 0 C1.0501123 0.70495605 1.10022461 1.40991211 1.15185547 2.13623047 C1.38638832 5.3829948 1.6306353 8.62896142 1.875 11.875 C1.95363281 12.98359375 2.03226562 14.0921875 2.11328125 15.234375 C2.82081641 24.4867578 4.18119234 33.12725523 7.27734375 41.88671875 C7.9690333 43.90944332 8.52740902 45.93126243 9.0625 48 C9.371875 48.99 9.68125 49.98 10 51 C10.66 51.33 11.32 51.66 12 52 C12.33 52.99 12.66 53.98 13 55 C13.515625 55.474375 14.03125 55.94875 14.5625 56.4375 C16 58 16 58 16 62 C16.66 62 17.32 62 18 62 C17.67 62.99 17.34 63.98 17 65 C17 64.34 17 63.68 17 63 C15.515 62.505 15.515 62.505 14 62 C8.76818245 55.56743744 6.37550823 47.81676147 3.98046875 40.02734375 C3.30239764 37.15078573 3.30239764 37.15078573 2 36 C-0.94570422 24.2601861 -0.19984623 11.99538576 0 0 Z " fill="#C5E7D7" transform="translate(87,105)"/>
<path d="M0 0 C0.66 0.33 1.32 0.66 2 1 C1.01 1.804375 1.01 1.804375 0 2.625 C-2.27623787 4.88744631 -2.27623787 4.88744631 -2.375 8.125 C-2.280721 11.12575284 -2.280721 11.12575284 0 13 C0.1953125 15.1640625 0.1953125 15.1640625 0.125 17.625 C0.10695312 18.44226563 0.08890625 19.25953125 0.0703125 20.1015625 C0.04710937 20.72804687 0.02390625 21.35453125 0 22 C-4.06070414 21.71669506 -5.58118493 21.46290086 -8.375 18.375 C-10.65643347 15.80910984 -10.65643347 15.80910984 -12.984375 15.89453125 C-15.00433005 16.17098495 -17.00460638 16.58161102 -19 17 C-19.99 17 -20.98 17 -22 17 C-16.90909091 13 -16.90909091 13 -13.0625 13 C-9.31073688 14.22506551 -6.35321926 15.92100406 -3 18 C-3.15597656 17.33613281 -3.31195313 16.67226562 -3.47265625 15.98828125 C-3.66730469 15.10527344 -3.86195313 14.22226563 -4.0625 13.3125 C-4.35833984 12.00732422 -4.35833984 12.00732422 -4.66015625 10.67578125 C-5.02625172 7.7933054 -4.83628114 5.77493286 -4 3 C-1.9375 1.1875 -1.9375 1.1875 0 0 Z " fill="#3A7B24" transform="translate(188,146)"/>
<path d="M0 0 C0.66 0 1.32 0 2 0 C2.67220351 1.93558599 3.33758077 3.87354372 4 5.8125 C4.556875 7.43091797 4.556875 7.43091797 5.125 9.08203125 C6 12 6 12 6 15 C11.28 15 16.56 15 22 15 C22 15.66 22 16.32 22 17 C16.39 16.67 10.78 16.34 5 16 C4.01 14.02 3.02 12.04 2 10 C0.68 10 -0.64 10 -2 10 C-2 11.98 -2 13.96 -2 16 C-7.94 16.33 -13.88 16.66 -20 17 C-20 16.34 -20 15.68 -20 15 C-15.05 15 -10.1 15 -5 15 C-4.67 13.35 -4.34 11.7 -4 10 C-3.35103174 8.2146857 -2.66312895 6.44305392 -1.9375 4.6875 C-1.57527344 3.80449219 -1.21304688 2.92148438 -0.83984375 2.01171875 C-0.56269531 1.34785156 -0.28554687 0.68398437 0 0 Z " fill="#AEA31E" transform="translate(173,126)"/>
<path d="M0 0 C3 0.25 3 0.25 5 2.25 C5.25 5.75 5.25 5.75 5 9.25 C3 11.25 3 11.25 0 11.5 C-3 11.25 -3 11.25 -5 9.25 C-5.25 5.75 -5.25 5.75 -5 2.25 C-3 0.25 -3 0.25 0 0 Z " fill="#FCF9E4" transform="translate(209,98.75)"/>
<path d="M0 0 C0 4.4429874 -2.0076107 6.94558637 -5 10.125 C-6.19413752 11.24450393 -7.39901057 12.35297089 -8.625 13.4375 C-10.40405475 15.45915312 -11.0621964 17.47965283 -12 20 C-14.7 25.85 -14.7 25.85 -17 27 C-17.33 27.99 -17.66 28.98 -18 30 C-18.66 30.33 -19.32 30.66 -20 31 C-20.495 32.485 -20.495 32.485 -21 34 C-21.66 34 -22.32 34 -23 34 C-17.74220382 20.54982373 -10.47606381 9.93882977 0 0 Z " fill="#308A62" transform="translate(90,38)"/>
<path d="M0 0 C16.17 0 32.34 0 49 0 C49 0.33 49 0.66 49 1 C41.08 1.495 41.08 1.495 33 2 C32.67 3.98 32.34 5.96 32 8 C32.99 7.67 33.98 7.34 35 7 C35.495 11.95 35.495 11.95 36 17 C35.34 15.68 34.68 14.36 34 13 C33.34 12.01 32.68 11.02 32 10 C28.41642759 9.74984127 28.41642759 9.74984127 25 10 C26.375 8.5 26.375 8.5 28 7 C28.66 7 29.32 7 30 7 C30 5.02 30 3.04 30 1 C20.43 1 10.86 1 1 1 C0.67 1.99 0.34 2.98 0 4 C0 2.68 0 1.36 0 0 Z " fill="#3F8650" transform="translate(114,90)"/>
<path d="M0 0 C0.66 0 1.32 0 2 0 C0.67435047 3.0381839 -0.62904425 4.78945198 -3.2578125 6.796875 C-4.19560547 7.52197266 -4.19560547 7.52197266 -5.15234375 8.26171875 C-5.80332031 8.75285156 -6.45429688 9.24398437 -7.125 9.75 C-7.78371094 10.25660156 -8.44242188 10.76320312 -9.12109375 11.28515625 C-10.74214112 12.53030858 -12.37038213 13.76608569 -14 15 C-14.33 14.01 -14.66 13.02 -15 12 C-16.66289062 12.66708984 -16.66289062 12.66708984 -18.359375 13.34765625 C-19.82269031 13.91985006 -21.28624465 14.49143282 -22.75 15.0625 C-23.47960937 15.35705078 -24.20921875 15.65160156 -24.9609375 15.95507812 C-25.66992188 16.22900391 -26.37890625 16.50292969 -27.109375 16.78515625 C-27.75874023 17.04176025 -28.40810547 17.29836426 -29.07714844 17.56274414 C-31.36632786 18.08330284 -32.79256664 17.72364304 -35 17 C-33.83082031 16.60167969 -32.66164062 16.20335937 -31.45703125 15.79296875 C-29.90875185 15.25810859 -28.36058041 14.72293583 -26.8125 14.1875 C-25.65911133 13.79594727 -25.65911133 13.79594727 -24.48242188 13.39648438 C-20.3326722 11.95386754 -16.70729014 10.40031328 -13 8 C-10.15041965 6.45105799 -7.28937336 4.92520126 -4.42578125 3.40234375 C-1.92209845 2.09428256 -1.92209845 2.09428256 0 0 Z " fill="#A7D5BF" transform="translate(241,175)"/>
<path d="M0 0 C2.91517292 1.07401108 4.77810176 1.77810176 7 4 C7.144375 4.639375 7.28875 5.27875 7.4375 5.9375 C7.84495658 8.10336228 7.84495658 8.10336228 9.5625 9.5625 C10.036875 10.036875 10.51125 10.51125 11 11 C11 11.99 11 12.98 11 14 C11.66 14 12.32 14 13 14 C14.53266582 17.06533164 14.10276471 20.26754272 14.0625 23.625 C14.05798828 24.33140625 14.05347656 25.0378125 14.04882812 25.765625 C14.03703875 27.51045275 14.01910324 29.255237 14 31 C13.67 31 13.34 31 13 31 C13 26.71 13 22.42 13 18 C12.34 18 11.68 18 11 18 C11 17.01 11 16.02 11 15 C10.01 14.67 9.02 14.34 8 14 C8 12.68 8 11.36 8 10 C6.68 10.33 5.36 10.66 4 11 C4 12.65 4 14.3 4 16 C2.4375 14.3125 2.4375 14.3125 1 12 C1.2565444 8.49389321 2.0185934 6.9721099 4 4 C2.68 3.34 1.36 2.68 0 2 C0 1.34 0 0.68 0 0 Z " fill="#F4BD38" transform="translate(190,58)"/>
<path d="M0 0 C0.33 1.32 0.66 2.64 1 4 C0.360625 4.2475 -0.27875 4.495 -0.9375 4.75 C-3.1701972 5.77143702 -3.1701972 5.77143702 -3.44921875 7.81640625 C-4.11328391 10.44911846 -5.2448705 12.02615915 -6.875 14.1875 C-7.38804688 14.88230469 -7.90109375 15.57710937 -8.4296875 16.29296875 C-10 18 -10 18 -13 19 C-13.69937532 20.31647119 -14.36729133 21.65022151 -15 23 C-15.66 23.33 -16.32 23.66 -17 24 C-17.72159424 25.64363134 -18.39351421 27.31050386 -19 29 C-19.99 29 -20.98 29 -22 29 C-21.67 27.68 -21.34 26.36 -21 25 C-20.34 25 -19.68 25 -19 25 C-18.75507812 24.27167969 -18.51015625 23.54335938 -18.2578125 22.79296875 C-16.85525932 19.67860377 -15.22086374 17.78505673 -12.875 15.3125 C-8.31856191 10.40159023 -4.12150729 5.2782246 0 0 Z " fill="#F9EED0" transform="translate(97,235)"/>
<path d="M0 0 C2 2 2 2 2.1953125 5.4765625 C2.18201493 6.85950968 2.15816232 8.24238654 2.125 9.625 C2.11597656 10.33140625 2.10695312 11.0378125 2.09765625 11.765625 C2.07407603 13.51056098 2.03820461 15.25532295 2 17 C0.02 17 -1.96 17 -4 17 C-3.91297874 14.72844502 -3.80480478 12.45769257 -3.6875 10.1875 C-3.62949219 8.92292969 -3.57148438 7.65835938 -3.51171875 6.35546875 C-3 3 -3 3 -1.45703125 1.05078125 C-0.97621094 0.70402344 -0.49539062 0.35726562 0 0 Z " fill="#F7AD03" transform="translate(149,71)"/>
<path d="M0 0 C0.33 0 0.66 0 1 0 C1.01458252 0.59200195 1.02916504 1.18400391 1.04418945 1.79394531 C1.33801645 12.57106271 1.79655968 23.26239294 3.375 33.9375 C3.48884033 34.73381836 3.60268066 35.53013672 3.7199707 36.35058594 C4.3358679 40.22428761 5.18792732 43.67644835 6.6640625 47.31640625 C7.98744259 50.96537534 8.12452891 51.58924265 7 55 C5.9957295 52.77954872 5.02287852 50.5519181 4.0625 48.3125 C3.78470703 47.70599609 3.50691406 47.09949219 3.22070312 46.47460938 C-1.19579339 35.9920815 -0.14179254 23.84334992 -0.0625 12.6875 C-0.05798828 11.45837891 -0.05347656 10.22925781 -0.04882812 8.96289062 C-0.03720289 5.97520644 -0.02086559 2.98763145 0 0 Z " fill="#B0DCC9" transform="translate(56,105)"/>
<path d="M0 0 C0.33 0.66 0.66 1.32 1 2 C0.67 2.99 0.34 3.98 0 5 C-4.95 5 -9.9 5 -15 5 C-15 5.66 -15 6.32 -15 7 C-14.46375 7.061875 -13.9275 7.12375 -13.375 7.1875 C-9.82973843 8.40035264 -7.7407608 10.44610926 -5 13 C-5 13.66 -5 14.32 -5 15 C-7.16874252 14.49396008 -8.99967627 14.00016187 -11 13 C-11.268125 12.34 -11.53625 11.68 -11.8125 11 C-12.85955198 8.71525923 -12.85955198 8.71525923 -15.625 8.25 C-16.40875 8.1675 -17.1925 8.085 -18 8 C-17.67 6.35 -17.34 4.7 -17 3 C-16.02417969 2.95101562 -15.04835937 2.90203125 -14.04296875 2.8515625 C-12.77066406 2.77679688 -11.49835938 2.70203125 -10.1875 2.625 C-8.29064453 2.52058594 -8.29064453 2.52058594 -6.35546875 2.4140625 C-2.87244766 2.23897061 -2.87244766 2.23897061 0 0 Z " fill="#237A29" transform="translate(168,136)"/>
<path d="M0 0 C2 1 4 2 6 3 C6.92830843 7.63581186 7.40801131 12.30637542 8 17 C12.95 17 17.9 17 23 17 C23 17.33 23 17.66 23 18 C17.72 18 12.44 18 7 18 C3 7.5 3 7.5 3 3 C2.34 3 1.68 3 1 3 C0.71125 4.27875 0.4225 5.5575 0.125 6.875 C-0.54102483 9.82453855 -0.80202597 10.80202597 -3 13 C-3.38281159 7.76824163 -2.21854707 4.62197306 0 0 Z " fill="#327824" transform="translate(172,123)"/>
<path d="M0 0 C0 4.19776349 -1.90652109 6.4899577 -4.3125 9.8125 C-6.82482663 11.58043356 -9.0172413 11.19885058 -12 11 C-12 10.67 -12 10.34 -12 10 C-12.62648438 9.90203125 -13.25296875 9.8040625 -13.8984375 9.703125 C-14.71570312 9.55359375 -15.53296875 9.4040625 -16.375 9.25 C-17.18710937 9.11078125 -17.99921875 8.9715625 -18.8359375 8.828125 C-21 8 -21 8 -22.2890625 5.921875 C-22.52367188 5.28765625 -22.75828125 4.6534375 -23 4 C-21.95779297 4.47566406 -21.95779297 4.47566406 -20.89453125 4.9609375 C-17.73811356 6.09401052 -15.02719833 6.40480011 -11.6875 6.625 C-10.08455078 6.73714844 -10.08455078 6.73714844 -8.44921875 6.8515625 C-7.64097656 6.90054687 -6.83273438 6.94953125 -6 7 C-6 6.34 -6 5.68 -6 5 C-4.04072937 3.2856382 -2.04119788 1.61594832 0 0 Z " fill="#F6E3B8" transform="translate(52,292)"/>
<path d="M0 0 C0.56847656 0.19335938 1.13695312 0.38671875 1.72265625 0.5859375 C13.84914356 4.67533723 24.87674752 6.0433789 37.625 6.5625 C38.62917969 6.60568359 39.63335937 6.64886719 40.66796875 6.69335938 C43.11188383 6.79809859 45.55587617 6.90027256 48 7 C48 7.33 48 7.66 48 8 C33.85263919 8.2105262 19.98538955 8.3661082 6 6 C6 5.34 6 4.68 6 4 C5.34 4 4.68 4 4 4 C4 3.34 4 2.68 4 2 C2.68 1.67 1.36 1.34 0 1 C0 0.67 0 0.34 0 0 Z " fill="#539979" transform="translate(144,188)"/>
<path d="M0 0 C-0.12109375 1.796875 -0.12109375 1.796875 -1 4 C-3.72265625 5.703125 -3.72265625 5.703125 -7.0625 7.25 C-8.16722656 7.77078125 -9.27195313 8.2915625 -10.41015625 8.828125 C-11.26480469 9.21484375 -12.11945313 9.6015625 -13 10 C-13 8.68 -13 7.36 -13 6 C-13.99 5.67 -14.98 5.34 -16 5 C-13.70967689 4.16280617 -11.41789043 3.3301071 -9.125 2.5 C-8.47402344 2.26152344 -7.82304687 2.02304688 -7.15234375 1.77734375 C-2.2265625 0 -2.2265625 0 0 0 Z " fill="#EEFAF3" transform="translate(226,187)"/>
<path d="M0 0 C2.07463695 1.03022974 4.13965842 2.07318997 6.19140625 3.1484375 C12.29956067 6.30817471 18.49260948 8.78550779 25 11 C25 11.33 25 11.66 25 12 C23.0412957 11.85923685 21.08303907 11.7122324 19.125 11.5625 C18.03445312 11.48128906 16.94390625 11.40007812 15.8203125 11.31640625 C13 11 13 11 11 10 C11 9.34 11 8.68 11 8 C9.9171875 7.8453125 9.9171875 7.8453125 8.8125 7.6875 C5.6741737 6.92035357 3.58355515 5.93766636 1 4 C0.1875 1.8125 0.1875 1.8125 0 0 Z " fill="#297826" transform="translate(201,136)"/>
<path d="M0 0 C0.33 1.32 0.66 2.64 1 4 C-0.98 4.33 -2.96 4.66 -5 5 C-5 5.66 -5 6.32 -5 7 C-5.99 7 -6.98 7 -8 7 C-8 7.66 -8 8.32 -8 9 C-9.32 9.33 -10.64 9.66 -12 10 C-12.061875 10.598125 -12.12375 11.19625 -12.1875 11.8125 C-13.33135807 14.89211788 -15.17695452 15.42434671 -18 17 C-19.36984198 18.29579647 -20.7151049 19.61992749 -22 21 C-22.66 20.67 -23.32 20.34 -24 20 C-20.66819187 16.57947509 -17.36944921 13.22192935 -13.625 10.25 C-10.78205388 8.20365457 -10.78205388 8.20365457 -10 5 C-8.68 5 -7.36 5 -6 5 C-6 4.34 -6 3.68 -6 3 C-5.34 3 -4.68 3 -4 3 C-4 2.34 -4 1.68 -4 1 C-2 0 -2 0 0 0 Z " fill="#F6D26B" transform="translate(40,235)"/>
<path d="M0 0 C0.66 0.33 1.32 0.66 2 1 C-0.65786952 5.52822214 -2.23873166 7.09549266 -7 9 C-8.39300182 10.95890881 -9.72245446 12.9639118 -11 15 C-13.5 17.9375 -13.5 17.9375 -16 20 C-18.15625 19.62890625 -18.15625 19.62890625 -20 19 C-18.28710701 17.28710701 -16.57398204 15.57445908 -14.859375 13.86328125 C-13.41748857 12.41836565 -11.98751674 10.96155563 -10.5625 9.5 C-7.16660079 6.1869276 -3.59433047 3.09487015 0 0 Z " fill="#F2BA2A" transform="translate(64,212)"/>
<path d="M0 0 C0 0.66 0 1.32 0 2 C-0.99 2 -1.98 2 -3 2 C-3.33 2.99 -3.66 3.98 -4 5 C-6.546875 5.84375 -6.546875 5.84375 -9.75 6.5 C-14.29512966 7.44003744 -14.29512966 7.44003744 -18.37109375 9.55078125 C-21.99762225 11.54995223 -25.23291545 11.55989905 -29.3125 11.6875 C-30.05306641 11.72166016 -30.79363281 11.75582031 -31.55664062 11.79101562 C-33.37058164 11.87293554 -35.18526353 11.93815822 -37 12 C-37 11.67 -37 11.34 -37 11 C-35.73285156 10.75765625 -34.46570313 10.5153125 -33.16015625 10.265625 C-20.68948983 7.83417151 -20.68948983 7.83417151 -9 3 C-2.42553191 0 -2.42553191 0 0 0 Z " fill="#9ED0B7" transform="translate(231,223)"/>
<path d="M0 0 C0.83144531 0.00451172 1.66289062 0.00902344 2.51953125 0.01367188 C4.55471897 0.02536836 6.58986923 0.04330065 8.625 0.0625 C8.625 0.3925 8.625 0.7225 8.625 1.0625 C7.10132813 1.13597656 7.10132813 1.13597656 5.546875 1.2109375 C-8.73680117 1.32470299 -8.73680117 1.32470299 -21.90625 5.58984375 C-24.51927902 7.14856518 -26.18622312 7.52602411 -29.1875 7.75 C-30.37279297 7.84861328 -30.37279297 7.84861328 -31.58203125 7.94921875 C-32.17371094 7.98660156 -32.76539063 8.02398437 -33.375 8.0625 C-32.375 6.0625 -32.375 6.0625 -30.58984375 5.28125 C-20.35224729 2.05017324 -10.77399809 -0.11169217 0 0 Z " fill="#7FBB9F" transform="translate(169.375,31.9375)"/>
<path d="M0 0 C0.33 0.99 0.66 1.98 1 3 C5.95 3 10.9 3 16 3 C14.6581656 7.02550319 12.5772427 7.88285636 9 10 C8.34 10 7.68 10 7 10 C6.67 11.65 6.34 13.3 6 15 C5.67 15 5.34 15 5 15 C5 12.69 5 10.38 5 8 C6.32 7.34 7.64 6.68 9 6 C4.545 5.01 4.545 5.01 0 4 C0 2.68 0 1.36 0 0 Z " fill="#D6AE18" transform="translate(177,139)"/>
<path d="M0 0 C0.33 0 0.66 0 1 0 C1.50868796 4.14481478 2.00535957 8.29098724 2.5 12.4375 C2.64308594 13.60216797 2.78617187 14.76683594 2.93359375 15.96679688 C3.69044632 22.36400312 4.16533901 28.55866785 4 35 C3.67 35 3.34 35 3 35 C0.26636126 23.20304709 -0.35483061 12.09052464 0 0 Z " fill="#43956F" transform="translate(262,158)"/>
<path d="M0 0 C0.33 0 0.66 0 1 0 C1 2.64 1 5.28 1 8 C0.34 8 -0.32 8 -1 8 C-0.979375 9.0725 -0.95875 10.145 -0.9375 11.25 C-1 15 -1 15 -1.48413086 16.89550781 C-2.10555097 19.43059599 -2.21498668 21.81394329 -2.31640625 24.421875 C-2.35830078 25.44667969 -2.40019531 26.47148438 -2.44335938 27.52734375 C-2.48267578 28.59082031 -2.52199219 29.65429688 -2.5625 30.75 C-2.60568359 31.82894531 -2.64886719 32.90789062 -2.69335938 34.01953125 C-2.79928989 36.67956428 -2.90136421 39.33968812 -3 42 C-3.33 42 -3.66 42 -4 42 C-4.48061551 11.52158273 -4.48061551 11.52158273 0 0 Z " fill="#40906E" transform="translate(61,86)"/>
<path d="M0 0 C6.75 3.75 6.75 3.75 9 6 C8.8125 9 8.8125 9 8 12 C7.01 12.66 6.02 13.32 5 14 C5.33 12.35 5.66 10.7 6 9 C5.34 9 4.68 9 4 9 C2 6 2 6 2 2 C1.34 2 0.68 2 0 2 C0 1.34 0 0.68 0 0 Z " fill="#D89927" transform="translate(95,218)"/>
<path d="M0 0 C0.78375 0.04125 1.5675 0.0825 2.375 0.125 C1.23307217 1.26692783 0.09050762 2.40822385 -1.0546875 3.546875 C-2.19515032 4.69301177 -3.32387306 5.85086815 -4.4453125 7.015625 C-5.06148437 7.64984375 -5.67765625 8.2840625 -6.3125 8.9375 C-6.89386719 9.54207031 -7.47523437 10.14664063 -8.07421875 10.76953125 C-9.625 12.125 -9.625 12.125 -11.625 12.125 C-11.625 12.785 -11.625 13.445 -11.625 14.125 C-12.285 14.125 -12.945 14.125 -13.625 14.125 C-13.625 13.135 -13.625 12.145 -13.625 11.125 C-12.635 11.125 -11.645 11.125 -10.625 11.125 C-10.625 10.465 -10.625 9.805 -10.625 9.125 C-9.965 9.125 -9.305 9.125 -8.625 9.125 C-8.625 8.135 -8.625 7.145 -8.625 6.125 C-7.635 6.125 -6.645 6.125 -5.625 6.125 C-5.50125 5.50625 -5.3775 4.8875 -5.25 4.25 C-4.29660357 1.00845214 -3.38899251 0.1613806 0 0 Z " fill="#FDF8DB" transform="translate(24.625,244.875)"/>
<path d="M0 0 C0.66 0.33 1.32 0.66 2 1 C1.33484375 1.50015625 0.6696875 2.0003125 -0.015625 2.515625 C-2.33866546 5.42399849 -2.31423444 7.04265034 -1.99609375 10.68359375 C-1.87427734 11.70646484 -1.87427734 11.70646484 -1.75 12.75 C-1.68425781 13.44738281 -1.61851562 14.14476562 -1.55078125 14.86328125 C-1.38640673 16.57747263 -1.19577346 18.28911023 -1 20 C-3.375 19.6875 -3.375 19.6875 -6 19 C-6.66 18.01 -7.32 17.02 -8 16 C-5.525 16.99 -5.525 16.99 -3 18 C-3.15597656 17.33613281 -3.31195313 16.67226562 -3.47265625 15.98828125 C-3.76462891 14.66376953 -3.76462891 14.66376953 -4.0625 13.3125 C-4.25972656 12.44238281 -4.45695313 11.57226562 -4.66015625 10.67578125 C-5.02625172 7.7933054 -4.83628114 5.77493286 -4 3 C-1.9375 1.1875 -1.9375 1.1875 0 0 Z " fill="#5D8520" transform="translate(188,146)"/>
<path d="M0 0 C7.7853497 0.86936405 13.72974096 2.16821215 20 7 C16.92793215 8.36624097 15.65237552 7.89059724 12.36328125 6.85546875 C11.00829762 6.31109116 9.65810029 5.754675 8.3125 5.1875 C7.27899414 4.77661133 7.27899414 4.77661133 6.22460938 4.35742188 C1.13533453 2.27066906 1.13533453 2.27066906 0 0 Z " fill="#C3AC1A" transform="translate(212,141)"/>
<path d="M0 0 C2.475 0.495 2.475 0.495 5 1 C5.11085937 1.70769531 5.22171875 2.41539063 5.3359375 3.14453125 C6.29258464 7.25811395 8.18844574 10.79630221 10.0390625 14.57421875 C10.35617188 15.37472656 10.67328125 16.17523438 11 17 C10.67 17.66 10.34 18.32 10 19 C7 14.25 7 14.25 7 12 C6.34 12 5.68 12 5 12 C3.35 8.04 1.7 4.08 0 0 Z " fill="#C4A91A" transform="translate(163,90)"/>
<path d="M0 0 C0.66 0.33 1.32 0.66 2 1 C0.38405168 3.04119788 -1.2856382 5.04072937 -3 7 C-3.66 7 -4.32 7 -5 7 C-5 7.66 -5 8.32 -5 9 C-6.32 9 -7.64 9 -9 9 C-9.2475 9.639375 -9.495 10.27875 -9.75 10.9375 C-11 13 -11 13 -13.125 13.75 C-14.053125 13.87375 -14.053125 13.87375 -15 14 C-14.34 12.68 -13.68 11.36 -13 10 C-12.34 10 -11.68 10 -11 10 C-11 9.34 -11 8.68 -11 8 C-10.113125 7.608125 -9.22625 7.21625 -8.3125 6.8125 C-4.87870392 4.93363045 -2.63458231 2.86704545 0 0 Z " fill="#F4B514" transform="translate(24,249)"/>
<path d="M0 0 C1.98 0 3.96 0 6 0 C6 1.98 6 3.96 6 6 C3.69 6.33 1.38 6.66 -1 7 C-0.67 4.69 -0.34 2.38 0 0 Z " fill="#046F37" transform="translate(138,91)"/>
<path d="M0 0 C0 4.37564756 -1.97585546 6.83459415 -4.8125 10.0625 C-7.37805727 12.33485072 -10.11157878 14.16191377 -13 16 C-11.43636055 12.34584258 -9.17824958 9.7880312 -6.5 6.875 C-5.7059375 6.00617187 -4.911875 5.13734375 -4.09375 4.2421875 C-2.75256247 2.80591578 -1.38954317 1.38954317 0 0 Z " fill="#3E916B" transform="translate(90,38)"/>
<path d="M0 0 C2.31 0 4.62 0 7 0 C6.15695313 0.62841797 6.15695313 0.62841797 5.296875 1.26953125 C2.92968468 3.05297566 0.58763522 4.86551961 -1.75 6.6875 C-2.54921875 7.31011719 -3.3484375 7.93273438 -4.171875 8.57421875 C-4.77515625 9.04472656 -5.3784375 9.51523437 -6 10 C-6 6.79604584 -5.25664978 4.90600261 -4 2 C-2.68 2 -1.36 2 0 2 C0 1.34 0 0.68 0 0 Z " fill="#FAEAB3" transform="translate(157,54)"/>
<path d="M0 0 C0 0.66 0 1.32 0 2 C-0.70125 2.391875 -1.4025 2.78375 -2.125 3.1875 C-5.38522392 5.24285856 -7.18824139 7.51778558 -9.47265625 10.57421875 C-11 12 -11 12 -15 12 C-15 11.34 -15 10.68 -15 10 C-13.44996996 8.60410053 -11.83365761 7.28112981 -10.1875 6 C-9.29417969 5.29875 -8.40085937 4.5975 -7.48046875 3.875 C-2.35416667 0 -2.35416667 0 0 0 Z " fill="#B0D9C5" transform="translate(128,44)"/>
<path d="M0 0 C0.99 0.495 0.99 0.495 2 1 C2.33 1.99 2.66 2.98 3 4 C3.66 4.33 4.32 4.66 5 5 C5.33 5.99 5.66 6.98 6 8 C6.7734375 8.7115625 6.7734375 8.7115625 7.5625 9.4375 C9 11 9 11 9 15 C9.66 15 10.32 15 11 15 C10.67 15.99 10.34 16.98 10 18 C10 17.34 10 16.68 10 16 C9.01 15.67 8.02 15.34 7 15 C5.4296875 12.890625 5.4296875 12.890625 3.875 10.25 C3.35679688 9.38890625 2.83859375 8.5278125 2.3046875 7.640625 C1.0243554 5.04929416 0.41975734 2.84615952 0 0 Z " fill="#ADD5C1" transform="translate(94,152)"/>
<path d="M0 0 C4.25886253 1.52102233 5.86194832 4.11587279 8 8 C8.28139654 10.78582574 8.38863832 13.12356255 8.25 15.875 C8.23195312 16.56335938 8.21390625 17.25171875 8.1953125 17.9609375 C8.14863748 19.6412381 8.07690939 21.32081163 8 23 C7.67 23 7.34 23 7 23 C7 18.71 7 14.42 7 10 C6.01 9.67 5.02 9.34 4 9 C3.26919734 7.02253397 2.60578253 5.01927511 2 3 C1.34 2.01 0.68 1.02 0 0 Z " fill="#FCEAAF" transform="translate(186,66)"/>
<path d="M0 0 C1.09924805 0.00773437 1.09924805 0.00773437 2.22070312 0.015625 C7.62763127 0.09506563 7.62763127 0.09506563 9.9375 1.25 C9.9375 2.24 9.9375 3.23 9.9375 4.25 C8.7825 3.92 7.6275 3.59 6.4375 3.25 C0.51628152 1.77231539 -5.10082481 1.7595812 -11.0625 3.25 C-8.33811827 -0.80986298 -4.39789063 -0.12443192 0 0 Z " fill="#F4C54C" transform="translate(176.0625,60.75)"/>
<path d="M0 0 C1.67542976 0.28604898 3.34385343 0.61781233 5 1 C4.67 1.99 4.34 2.98 4 4 C3.443125 3.731875 2.88625 3.46375 2.3125 3.1875 C1.1678125 3.0946875 1.1678125 3.0946875 0 3 C-2.51185394 5.1613627 -4.50981219 7.01962439 -6 10 C-7.64363134 10.72159424 -9.31050386 11.39351421 -11 12 C-10.34 10.68 -9.68 9.36 -9 8 C-8.34 8 -7.68 8 -7 8 C-7 7.01 -7 6.02 -7 5 C-4.0625 2.875 -4.0625 2.875 -1 1 C-0.67 0.67 -0.34 0.34 0 0 Z " fill="#F7DD91" transform="translate(77,200)"/>
<path d="M0 0 C-12.25 6.125 -12.25 6.125 -18 6 C-15.14160085 3.69740069 -12.39581962 2.13731655 -9 0.75 C-8.154375 0.39421875 -7.30875 0.0384375 -6.4375 -0.328125 C-3.81117065 -1.05204912 -2.52787043 -0.9128421 0 0 Z " fill="#3C9069" transform="translate(142,10)"/>
<path d="M0 0 C0 0.33 0 0.66 0 1 C-1.28583984 1.03867187 -1.28583984 1.03867187 -2.59765625 1.078125 C-9.69555872 1.43021937 -14.05579563 2.205827 -20 6 C-22.18359375 5.6171875 -22.18359375 5.6171875 -24 5 C-16.45895578 -1.28420352 -9.32585021 -0.50930007 0 0 Z " fill="#F4C754" transform="translate(181,53)"/>
<path d="M0 0 C0.72896484 -0.01224609 1.45792969 -0.02449219 2.20898438 -0.03710938 C6.0338391 -0.04762685 7.80606564 0.01654376 11.0625 2.1875 C7.93848221 2.41287111 4.81338667 2.61488648 1.6875 2.8125 C0.79804688 2.87695312 -0.09140625 2.94140625 -1.0078125 3.0078125 C-1.85859375 3.059375 -2.709375 3.1109375 -3.5859375 3.1640625 C-4.76422119 3.24261475 -4.76422119 3.24261475 -5.96630859 3.32275391 C-7.9375 3.1875 -7.9375 3.1875 -9.9375 1.1875 C-6.79347519 -0.3845124 -3.44802603 0.00303256 0 0 Z " fill="#FCF7DA" transform="translate(169.9375,50.8125)"/>
<path d="M0 0 C0 3.60777515 -0.9904432 5.06295544 -3 8 C-3.99 8.495 -3.99 8.495 -5 9 C-5.72159424 10.64363134 -6.39351421 12.31050386 -7 14 C-7.99 14 -8.98 14 -10 14 C-9.67 12.68 -9.34 11.36 -9 10 C-8.34 10 -7.68 10 -7 10 C-6.773125 9.278125 -6.54625 8.55625 -6.3125 7.8125 C-4.75168987 4.46790687 -2.6968713 2.48396041 0 0 Z " fill="#F2D69E" transform="translate(85,250)"/>
<path d="M0 0 C4.62 0 9.24 0 14 0 C14 0.33 14 0.66 14 1 C12.35 1.33 10.7 1.66 9 2 C8.67 3.32 8.34 4.64 8 6 C4.33759908 4.43039961 3.06096354 3.06096354 0 0 Z " fill="#E0BB1D" transform="translate(154,142)"/>
<path d="M0 0 C1.134375 0.020625 2.26875 0.04125 3.4375 0.0625 C1.85391358 3.22967283 0.98486301 4.79518318 -2.25 6.375 C-3.013125 6.601875 -3.77625 6.82875 -4.5625 7.0625 C-4.60504356 5.06295254 -4.60330783 3.06208364 -4.5625 1.0625 C-3.5625 0.0625 -3.5625 0.0625 0 0 Z " fill="#0A6D2A" transform="translate(150.5625,90.9375)"/>
<path d="M0 0 C0 3 0 3 -1.3203125 4.359375 C-1.91585937 4.81828125 -2.51140625 5.2771875 -3.125 5.75 C-6.90266403 8.81213907 -9.95140176 12.22554503 -13 16 C-13.66 15.67 -14.32 15.34 -15 15 C-12.87968717 12.68316385 -10.75297653 10.37229731 -8.625 8.0625 C-8.02171875 7.40314453 -7.4184375 6.74378906 -6.796875 6.06445312 C-6.21679688 5.43603516 -5.63671875 4.80761719 -5.0390625 4.16015625 C-4.23782959 3.28822632 -4.23782959 3.28822632 -3.42041016 2.39868164 C-2 1 -2 1 0 0 Z " fill="#EAA003" transform="translate(87,223)"/>
<path d="M0 0 C0.66 0 1.32 0 2 0 C0.74875245 5.68748885 -1.04102568 8.72847508 -5 13 C-6.32 12.34 -7.64 11.68 -9 11 C-8.50628906 10.61328125 -8.01257813 10.2265625 -7.50390625 9.828125 C-6.86324219 9.30734375 -6.22257813 8.7865625 -5.5625 8.25 C-4.92441406 7.73953125 -4.28632813 7.2290625 -3.62890625 6.703125 C-1.79678292 4.78752363 -1.46846958 3.56312093 -1 1 C-0.67 0.67 -0.34 0.34 0 0 Z " fill="#19804D" transform="translate(244,172)"/>
<path d="M0 0 C2.475 0.495 2.475 0.495 5 1 C5 1.99 5 2.98 5 4 C5.7425 4.2475 6.485 4.495 7.25 4.75 C10.20124062 6.09147301 11.84814974 7.60905526 14 10 C10.48336589 10 9.72723127 9.33674513 7 7.25 C5.9790625 6.48429688 5.9790625 6.48429688 4.9375 5.703125 C2.95629933 3.9615857 1.50269221 2.16012005 0 0 Z " fill="#AFA519" transform="translate(187,125)"/>
<path d="M0 0 C6 2 12 4 18 6 C13.70272603 7.30660357 10.39784135 6.6596762 6 6 C6 5.34 6 4.68 6 4 C5.34 4 4.68 4 4 4 C4 3.34 4 2.68 4 2 C2.68 1.67 1.36 1.34 0 1 C0 0.67 0 0.34 0 0 Z " fill="#A0CCB7" transform="translate(144,188)"/>
<path d="M0 0 C0.33 0 0.66 0 1 0 C1.21192221 5.19209404 0.5912689 9.126739 -1 14 C0.32 13.67 1.64 13.34 3 13 C3 13.66 3 14.32 3 15 C1.02 15.66 -0.96 16.32 -3 17 C-2.67 13.37 -2.34 9.74 -2 6 C-1.34 6 -0.68 6 0 6 C0 4.02 0 2.04 0 0 Z " fill="#518623" transform="translate(163,151)"/>
<path d="M0 0 C0.66 0 1.32 0 2 0 C1.52590352 4.31730413 -1.03396703 6.33647461 -4.0625 9.25 C-4.98160156 10.14203125 -5.90070312 11.0340625 -6.84765625 11.953125 C-7.55792969 12.62859375 -8.26820312 13.3040625 -9 14 C-9.66 13.67 -10.32 13.34 -11 13 C-9.88200014 11.66079162 -8.75538103 10.32877444 -7.625 9 C-6.99851562 8.2575 -6.37203125 7.515 -5.7265625 6.75 C-5.15679687 6.1725 -4.58703125 5.595 -4 5 C-3.34 5 -2.68 5 -2 5 C-1.34 3.35 -0.68 1.7 0 0 Z " fill="#E99F02" transform="translate(66,244)"/>
<path d="M0 0 C0.33 0.66 0.66 1.32 1 2 C0.34 2 -0.32 2 -1 2 C-1 2.66 -1 3.32 -1 4 C-4.3 4 -7.6 4 -11 4 C-7.23121442 0.23121442 -5.1234648 -0.13847202 0 0 Z " fill="#097331" transform="translate(177,161)"/>
<path d="M0 0 C0.66 0 1.32 0 2 0 C2 1.32 2 2.64 2 4 C2.66 4 3.32 4 4 4 C3.67 7.96 3.34 11.92 3 16 C2.34 16 1.68 16 1 16 C0.67 10.72 0.34 5.44 0 0 Z " fill="#F1B421" transform="translate(194,74)"/>
<path d="M0 0 C-0.0625 1.75 -0.0625 1.75 -1 4 C-3.70049044 6.00840495 -6.55126733 8 -10 8 C-10 7.34 -10 6.68 -10 6 C-9.01 6 -8.02 6 -7 6 C-6.731875 5.195625 -6.46375 4.39125 -6.1875 3.5625 C-5.795625 2.716875 -5.40375 1.87125 -5 1 C-2 0 -2 0 0 0 Z " fill="#E5F7ED" transform="translate(226,187)"/>
<path d="M0 0 C3 2 3 2 4 5 C4.66 5.33 5.32 5.66 6 6 C8 8 8 8 8.125 11.125 C8.08375 12.07375 8.0425 13.0225 8 14 C5 10.25 5 10.25 5 8 C4.34 8 3.68 8 3 8 C0 2.25 0 2.25 0 0 Z " fill="#338761" transform="translate(68,168)"/>
<path d="M0 0 C2.81475723 2.36870281 3.51102282 4.15544267 4.125 7.75 C4.2796875 8.62914062 4.434375 9.50828125 4.59375 10.4140625 C5.09530903 13.60667862 5.58198911 16.79524988 6 20 C3.55200137 17.55200137 2.97447722 15.52399884 1.875 12.25 C1.52179687 11.22390625 1.16859375 10.1978125 0.8046875 9.140625 C-0.01083125 5.95772656 -0.14685434 3.26995674 0 0 Z " fill="#268057" transform="translate(60,142)"/>
<path d="M0 0 C4.37624276 4.06365399 7.39719294 8.65618373 10 14 C8.7010161 13.09373216 7.41106833 12.17450463 6.125 11.25 C5.40570313 10.73953125 4.68640625 10.2290625 3.9453125 9.703125 C1.85751241 7.87525183 0.94115534 6.59560737 0 4 C0 2.68 0 1.36 0 0 Z " fill="#477E1D" transform="translate(171,106)"/>
<path d="M0 0 C0.33 0 0.66 0 1 0 C1.90487275 3.53722984 2.28571809 5.3714202 0.75 8.75 C-1 11 -1 11 -4 13 C-3.52343588 11.20763933 -3.04366502 9.41613103 -2.5625 7.625 C-2.29566406 6.62726563 -2.02882812 5.62953125 -1.75390625 4.6015625 C-1 2 -1 2 0 0 Z " fill="#328862" transform="translate(66,72)"/>
<path d="M0 0 C0 4.10746566 -1.63960436 5.19754861 -4.375 8.1875 C-5.18710937 9.08855469 -5.99921875 9.98960937 -6.8359375 10.91796875 C-9 13 -9 13 -11 13 C-10.67 11.68 -10.34 10.36 -10 9 C-9.071875 8.87625 -9.071875 8.87625 -8.125 8.75 C-5.85609195 8.21402157 -5.85609195 8.21402157 -5 6.1875 C-4.67 5.465625 -4.34 4.74375 -4 4 C-2.70529025 2.62913085 -1.37849103 1.28659163 0 0 Z " fill="#ECA104" transform="translate(49,264)"/>
<path d="M0 0 C0.66 0.33 1.32 0.66 2 1 C-0.57770188 5.39164024 -2.14100697 7.45934367 -7 9 C-8.6829392 9.97236487 -10.35443434 10.96564444 -12 12 C-12 11.34 -12 10.68 -12 10 C-10.42638552 8.60639308 -8.79004275 7.28297912 -7.125 6 C-3.43096483 3.14925117 -3.43096483 3.14925117 0 0 Z " fill="#F5CA57" transform="translate(64,212)"/>
<path d="M0 0 C4.13621084 3.3810038 7.81316569 6.66590534 11 11 C8.03 10.505 8.03 10.505 5 10 C4.67 9.01 4.34 8.02 4 7 C3.34 6.67 2.68 6.34 2 6 C1.27306096 4.02111039 0.60183749 2.02045442 0 0 Z " fill="#297827" transform="translate(181,120)"/>
<path d="M0 0 C0.33 0.66 0.66 1.32 1 2 C0.07421875 4.4609375 0.07421875 4.4609375 -1.3125 7.375 C-1.76238281 8.33148438 -2.21226563 9.28796875 -2.67578125 10.2734375 C-3.76868585 12.52372485 -4.87278739 14.7667431 -6 17 C-6.19622241 12.78121808 -5.80230168 9.82989106 -4 6 C-3.34 6 -2.68 6 -2 6 C-2 4.35 -2 2.7 -2 1 C-1.34 0.67 -0.68 0.34 0 0 Z " fill="#43926C" transform="translate(95,78)"/>
<path d="M0 0 C0.66 0 1.32 0 2 0 C0.59155282 3.21524305 -1.10344786 5.32183868 -3.625 7.75 C-4.57246094 8.67039062 -4.57246094 8.67039062 -5.5390625 9.609375 C-6.02117188 10.06828125 -6.50328125 10.5271875 -7 11 C-7.66 10.67 -8.32 10.34 -9 10 C-7.5484451 8.32742645 -6.08855591 6.66208242 -4.625 5 C-3.81289063 4.071875 -3.00078125 3.14375 -2.1640625 2.1875 C-1.44992188 1.465625 -0.73578125 0.74375 0 0 Z " fill="#EA9E02" transform="translate(34,280)"/>
<path d="M0 0 C0.66 0.33 1.32 0.66 2 1 C-1.08290155 5.22797927 -1.08290155 5.22797927 -3 7 C-5.8125 7.375 -5.8125 7.375 -8 7 C-8 6.34 -8 5.68 -8 5 C-6.3203125 3.67578125 -6.3203125 3.67578125 -4.125 2.3125 C-3.40570313 1.85488281 -2.68640625 1.39726562 -1.9453125 0.92578125 C-1.30335938 0.62027344 -0.66140625 0.31476563 0 0 Z " fill="#B2DAC6" transform="translate(244,214)"/>
<path d="M0 0 C0.66 0.33 1.32 0.66 2 1 C0.66667905 4.99996286 -1.4957827 5.83782337 -5 8 C-6.32 7.34 -7.64 6.68 -9 6 C-6.03 4.02 -3.06 2.04 0 0 Z " fill="#388D64" transform="translate(229,187)"/>
<path d="M0 0 C-1.51671964 4.55015893 -5.16891053 6.50057264 -9 9 C-9 8.34 -9 7.68 -9 7 C-9.66 6.67 -10.32 6.34 -11 6 C-9.54550599 4.9944239 -8.08627557 3.99569565 -6.625 3 C-5.40683594 2.1646875 -5.40683594 2.1646875 -4.1640625 1.3125 C-2 0 -2 0 0 0 Z " fill="#82C6A3" transform="translate(243,175)"/>
<path d="M0 0 C0.66 0 1.32 0 2 0 C2.02698189 1.62490954 2.04638757 3.24994633 2.0625 4.875 C2.07410156 5.77992188 2.08570313 6.68484375 2.09765625 7.6171875 C2 10 2 10 1 12 C1.99 12.33 2.98 12.66 4 13 C2.35 13.66 0.7 14.32 -1 15 C-0.9278125 14.00097656 -0.855625 13.00195312 -0.78125 11.97265625 C-0.6884375 10.68230469 -0.595625 9.39195312 -0.5 8.0625 C-0.4071875 6.77472656 -0.314375 5.48695313 -0.21875 4.16015625 C-0.06142822 2.08173561 -0.06142822 2.08173561 0 0 Z " fill="#B9A719" transform="translate(163,150)"/>
<path d="M0 0 C0.66 0.33 1.32 0.66 2 1 C-0.16116434 4.24174651 -1.72037695 5.04784342 -5 7 C-6.36984198 8.29579647 -7.7151049 9.61992749 -9 11 C-9.66 10.67 -10.32 10.34 -11 10 C-9.73232923 8.70522938 -8.46073776 7.41429661 -7.1875 6.125 C-6.47980469 5.40570313 -5.77210937 4.68640625 -5.04296875 3.9453125 C-3 2 -3 2 0 0 Z " fill="#549E7B" transform="translate(102,27)"/>
<path d="M0 0 C-1.15173355 2.46800047 -2.04783565 4.04783565 -4 6 C-5.98821313 6.39764263 -7.98944339 6.73775349 -10 7 C-3.18421053 0 -3.18421053 0 0 0 Z " fill="#529F7C" transform="translate(114,20)"/>
<path d="M0 0 C0.33 1.32 0.66 2.64 1 4 C-0.98 4.33 -2.96 4.66 -5 5 C-5 5.66 -5 6.32 -5 7 C-5.99 6.67 -6.98 6.34 -8 6 C-7.34 6 -6.68 6 -6 6 C-6 5.01 -6 4.02 -6 3 C-5.34 3 -4.68 3 -4 3 C-4 2.34 -4 1.68 -4 1 C-2 0 -2 0 0 0 Z " fill="#F5C344" transform="translate(40,235)"/>
<path d="M0 0 C4 2 8 4 12 6 C8.78798216 7.60600892 6.29112979 6.05786315 3 5 C2.34 4.67 1.68 4.34 1 4 C0.375 1.9375 0.375 1.9375 0 0 Z " fill="#4C8423" transform="translate(201,136)"/>
<path d="M0 0 C5.41798672 0.69165788 10.6822785 1.75799248 16 3 C16 3.99 16 4.98 16 6 C10.63904723 4.41078475 5.29156027 2.81027062 0 1 C0 0.67 0 0.34 0 0 Z " fill="#44916E" transform="translate(192,35)"/>
<path d="M0 0 C0.99 0.33 1.98 0.66 3 1 C2.5359375 1.99 2.5359375 1.99 2.0625 3 C0.75039745 6.70476015 0.39735865 10.09263991 0 14 C-0.33 14 -0.66 14 -1 14 C-1.02685938 11.85423363 -1.04633088 9.70837355 -1.0625 7.5625 C-1.07410156 6.36753906 -1.08570313 5.17257812 -1.09765625 3.94140625 C-1 1 -1 1 0 0 Z " fill="#FDF6D2" transform="translate(7,260)"/>
<path d="M0 0 C0 2 0 2 -1.5 3.625 C-5.12010808 5.61605945 -7.89993009 5.2050035 -12 5 C-8.45976076 2.63984051 -4.36489861 0 0 0 Z " fill="#65A889" transform="translate(220,194)"/>
<path d="M0 0 C2 2 2 2 2.125 5.125 C2.08375 6.07375 2.0425 7.0225 2 8 C1.34 8 0.68 8 0 8 C0 8.99 0 9.98 0 11 C-1.32 10.67 -2.64 10.34 -4 10 C-3.525625 9.649375 -3.05125 9.29875 -2.5625 8.9375 C-0.32126175 6.15836457 -0.32882342 3.4855283 0 0 Z " fill="#B8DBCB" transform="translate(266,189)"/>
<path d="M0 0 C0.33 3.3 0.66 6.6 1 10 C0.34 8.68 -0.32 7.36 -1 6 C-1.66 5.01 -2.32 4.02 -3 3 C-6.58357241 2.74984127 -6.58357241 2.74984127 -10 3 C-9.67 2.34 -9.34 1.68 -9 1 C-7.1875 0.5859375 -7.1875 0.5859375 -5 0.375 C-4.278125 0.30023438 -3.55625 0.22546875 -2.8125 0.1484375 C-1.87682776 0.07180917 -0.93880479 0 0 0 Z " fill="#549B74" transform="translate(149,97)"/>
<path d="M0 0 C0.74507812 0.00902344 1.49015625 0.01804688 2.2578125 0.02734375 C4.08868059 0.05081642 5.91938238 0.08668475 7.75 0.125 C7.75 0.455 7.75 0.785 7.75 1.125 C6.77417969 1.18558594 5.79835937 1.24617188 4.79296875 1.30859375 C2.88451172 1.43427734 2.88451172 1.43427734 0.9375 1.5625 C-0.32707031 1.64371094 -1.59164062 1.72492187 -2.89453125 1.80859375 C-6.24181893 1.99684547 -6.24181893 1.99684547 -9.25 3.125 C-10.24 2.795 -11.23 2.465 -12.25 2.125 C-8.4084024 -0.44280471 -4.4360825 -0.10188882 0 0 Z " fill="#F3B625" transform="translate(176.25,53.875)"/>
<path d="M0 0 C1.93681161 -0.08107583 3.8745934 -0.13922475 5.8125 -0.1875 C6.89144531 -0.22230469 7.97039062 -0.25710937 9.08203125 -0.29296875 C12 0 12 0 13.88671875 1.51171875 C14.25410156 2.00285156 14.62148437 2.49398438 15 3 C4.44191344 2.03644647 4.44191344 2.03644647 0 1 C0 0.67 0 0.34 0 0 Z " fill="#B7DBCA" transform="translate(181,6)"/>
<path d="M0 0 C0.33 1.32 0.66 2.64 1 4 C-1.64 5.98 -4.28 7.96 -7 10 C-4.98127747 5.96255494 -2.91899872 3.37989325 0 0 Z " fill="#F3DAAC" transform="translate(97,235)"/>
<path d="M0 0 C3.43752007 1.5277867 6.18953688 3.50181056 9 6 C9 6.66 9 7.32 9 8 C6.83125748 7.49396008 5.00032373 7.00016187 3 6 C1.95191959 4.02477154 0.9479589 2.02518491 0 0 Z " fill="#568927" transform="translate(154,143)"/>
<path d="M0 0 C1 2 1 2 0.0625 5.125 C-0.288125 6.07375 -0.63875 7.0225 -1 8 C-2.65 8.33 -4.3 8.66 -6 9 C-5.18914873 7.68648079 -4.37626942 6.37421332 -3.5625 5.0625 C-3.11003906 4.33160156 -2.65757813 3.60070312 -2.19140625 2.84765625 C-1 1 -1 1 0 0 Z " fill="#F7E6B8" transform="translate(59,283)"/>
<path d="M0 0 C0.125 2.375 0.125 2.375 0 5 C-0.66 5.66 -1.32 6.32 -2 7 C-2.99 7 -3.98 7 -5 7 C-4.53479806 4.30182875 -3.4249099 0 0 0 Z " fill="#F6E6BD" transform="translate(75,264)"/>
<path d="M0 0 C2.62386487 3.06117568 3 3.73173127 3 8 C0.625 7.6875 0.625 7.6875 -2 7 C-2.66 6.01 -3.32 5.02 -4 4 C-1.525 4.99 -1.525 4.99 1 6 C0.67 4.02 0.34 2.04 0 0 Z " fill="#989E24" transform="translate(184,158)"/>
<path d="M0 0 C0.33 0 0.66 0 1 0 C1.33 3.3 1.66 6.6 2 10 C-0.02045442 9.39816251 -2.02111039 8.72693904 -4 8 C-4.33 7.34 -4.66 6.68 -5 6 C-3.35 6 -1.7 6 0 6 C0 4.02 0 2.04 0 0 Z " fill="#D7AD14" transform="translate(183,154)"/>
<path d="M0 0 C0.33 0.99 0.66 1.98 1 3 C0.113125 2.95875 -0.77375 2.9175 -1.6875 2.875 C-4.97277013 2.99897246 -7.05449295 3.61387904 -10 5 C-9 2 -9 2 -7.25 0.8125 C-4.70039426 -0.10819096 -2.69076919 -0.14948718 0 0 Z " fill="#CBA919" transform="translate(177,157)"/>
<path d="M0 0 C1.2375 0.7115625 1.2375 0.7115625 2.5 1.4375 C6.52795901 3.23569599 9.63173579 3.6234255 14 4 C14 4.33 14 4.66 14 5 C4.26004228 5.57293869 4.26004228 5.57293869 0 2 C0 1.34 0 0.68 0 0 Z " fill="#FCEECC" transform="translate(29,296)"/>
<path d="M0 0 C0.99 0 1.98 0 3 0 C1.95125002 2.62187494 1.35068687 3.79371361 -1.125 5.25 C-1.74375 5.4975 -2.3625 5.745 -3 6 C-3 6.66 -3 7.32 -3 8 C-3.66 8 -4.32 8 -5 8 C-5 7.01 -5 6.02 -5 5 C-4.01 5 -3.02 5 -2 5 C-2 4.34 -2 3.68 -2 3 C-1.34 3 -0.68 3 0 3 C0 2.01 0 1.02 0 0 Z " fill="#FBF5CD" transform="translate(16,251)"/>
<path d="M0 0 C2.22825644 2.22825644 2.69239369 3.65761628 3.625 6.625 C4.01558594 7.85089844 4.01558594 7.85089844 4.4140625 9.1015625 C4.60742188 9.72804688 4.80078125 10.35453125 5 11 C4.01 10.67 3.02 10.34 2 10 C0.47839986 6.3962102 0 3.94779314 0 0 Z " fill="#2A751F" transform="translate(163,91)"/>
<path d="M0 0 C0.66 0.33 1.32 0.66 2 1 C-0.80804268 3.96404505 -3.18315774 6.44499019 -7 8 C-5.50902342 4.2047869 -3.24299151 2.38957269 0 0 Z " fill="#FDF7DC" transform="translate(162,66)"/>
<path d="M0 0 C0 0.33 0 0.66 0 1 C-9.41002278 3.11161731 -9.41002278 3.11161731 -14 4 C-14 3.34 -14 2.68 -14 2 C-9.07262981 0.02905192 -5.21979128 -0.1799928 0 0 Z " fill="#FEF2CA" transform="translate(178,62)"/>
<path d="M0 0 C1.32 0 2.64 0 4 0 C2.73058503 3.91402949 1.48832306 5.79072873 -2 8 C-1.34 5.36 -0.68 2.72 0 0 Z " fill="#E5B359" transform="translate(64,272)"/>
<path d="M0 0 C1.12894876 0.93274109 2.25300876 1.87140122 3.375 2.8125 C4.00148438 3.33457031 4.62796875 3.85664063 5.2734375 4.39453125 C7 6 7 6 9 9 C6.6875 8.8125 6.6875 8.8125 4 8 C2.06208579 5.36997358 1.03295481 3.09886444 0 0 Z " fill="#3C9069" transform="translate(108,175)"/>
<path d="M0 0 C0.66 0 1.32 0 2 0 C2.66 2.97 3.32 5.94 4 9 C3.34 8.67 2.68 8.34 2 8 C2 7.01 2 6.02 2 5 C1.01 5.33 0.02 5.66 -1 6 C-0.67 4.02 -0.34 2.04 0 0 Z " fill="#B0A828" transform="translate(173,126)"/>
<path d="M0 0 C0 0.66 0 1.32 0 2 C-1.96875 3.5078125 -1.96875 3.5078125 -4.5 5.125 C-5.3353125 5.66382812 -6.170625 6.20265625 -7.03125 6.7578125 C-7.6809375 7.16773437 -8.330625 7.57765625 -9 8 C-7.07722221 3.98039989 -4.95702348 0 0 0 Z " fill="#F6D572" transform="translate(164,64)"/>
<path d="M0 0 C3.39417765 3.12621626 5.6062718 5.56541027 7 10 C4.625 8.9375 4.625 8.9375 2 7 C0.6875 3.3125 0.6875 3.3125 0 0 Z " fill="#418D69" transform="translate(255,50)"/>
<path d="M0 0 C-3.03525486 2.02350324 -4.19426202 2.32124018 -7.6875 2.625 C-8.49574219 2.69976562 -9.30398437 2.77453125 -10.13671875 2.8515625 C-10.75160156 2.90054688 -11.36648437 2.94953125 -12 3 C-11 1 -11 1 -7.6875 -0.1875 C-4.42437937 -0.90649268 -3.00717118 -1.20286847 0 0 Z " fill="#AFDBC6" transform="translate(148,37)"/>
<path d="M0 0 C0.33 0.66 0.66 1.32 1 2 C-1.46153846 5.81538462 -1.46153846 5.81538462 -4.1875 6.75 C-4.785625 6.8325 -5.38375 6.915 -6 7 C-5.34 5.68 -4.68 4.36 -4 3 C-3.34 3 -2.68 3 -2 3 C-2 2.34 -2 1.68 -2 1 C-1.34 0.67 -0.68 0.34 0 0 Z " fill="#F1C750" transform="translate(15,256)"/>
<path d="M0 0 C3.3 0.33 6.6 0.66 10 1 C10 1.66 10 2.32 10 3 C10.66 3.33 11.32 3.66 12 4 C7.80530429 3.40075776 3.99000166 2.42500059 0 1 C0 0.67 0 0.34 0 0 Z " fill="#2A8258" transform="translate(142,230)"/>
<path d="M0 0 C1.9375 0.125 1.9375 0.125 4 1 C5.75 3.0625 5.75 3.0625 7 5 C4.5625 4.625 4.5625 4.625 2 4 C1.67 3.34 1.34 2.68 1 2 C0.01 2 -0.98 2 -2 2 C-1.34 1.34 -0.68 0.68 0 0 Z " fill="#F2B72C" transform="translate(77,202)"/>
<path d="M0 0 C1.98 0 3.96 0 6 0 C6 1.98 6 3.96 6 6 C5.34 6 4.68 6 4 6 C3.34 4.68 2.68 3.36 2 2 C1.34 2 0.68 2 0 2 C0 1.34 0 0.68 0 0 Z " fill="#106A34" transform="translate(138,91)"/>
<path d="M0 0 C2.375 0.3125 2.375 0.3125 5 1 C7 4 7 4 6.625 6.1875 C6.41875 6.785625 6.2125 7.38375 6 8 C5.566875 7.236875 5.13375 6.47375 4.6875 5.6875 C3.26313215 3.41906232 1.96739903 1.7800277 0 0 Z " fill="#EFD7A1" transform="translate(98,219)"/>
<path d="M0 0 C6.75 1.625 6.75 1.625 9 5 C4.68607774 4.5206753 2.83430453 3.2542015 0 0 Z " fill="#CDAF19" transform="translate(203,136)"/>
<path d="M0 0 C1.98 0 3.96 0 6 0 C6.66 1.32 7.32 2.64 8 4 C2.25 2.25 2.25 2.25 0 0 Z " fill="#FEF3D0" transform="translate(186,55)"/>
</svg>
